<svg width="320" height="320" viewBox="0 0 320 320" fill="none" xmlns="http://www.w3.org/2000/svg">
  <path fill-rule="evenodd" clip-rule="evenodd"
    d="M160 19.5C82.404 19.5 19.5 82.404 19.5 160C19.5 237.596 82.404 300.5 160 300.5C237.596 300.5 300.5 237.596 300.5 160C300.5 82.404 237.596 19.5 160 19.5ZM0.5 160C0.5 71.9106 71.9106 0.5 160 0.5C248.089 0.5 319.5 71.9106 319.5 160C319.5 248.089 248.089 319.5 160 319.5C71.9106 319.5 0.5 248.089 0.5 160Z"
    fill="#F4E0AE" />
  <path fill-rule="evenodd" clip-rule="evenodd"
    d="M274.376 59.3753L59.6255 274.125L45.4834 259.983L260.233 45.2332L274.376 59.3753Z"
    fill="#F4E0AE" />
  <path fill-rule="evenodd" clip-rule="evenodd"
    d="M236.563 31.5628L33.063 235.063L18.9209 220.921L222.421 17.4207L236.563 31.5628Z"
    fill="#F4E0AE" />
  <path fill-rule="evenodd" clip-rule="evenodd"
    d="M186.25 16.2504L17.5005 185L3.3584 170.858L172.108 2.10827L186.25 16.2504Z" fill="#F4E0AE" />
</svg>
  