<svg width="320" height="320" viewBox="0 0 320 320" fill="none" xmlns="http://www.w3.org/2000/svg">
  <path fill-rule="evenodd" clip-rule="evenodd"
    d="M160 17C81.0233 17 17 81.0233 17 160C17 238.977 81.0233 303 160 303C238.977 303 303 238.977 303 160C303 81.0233 238.977 17 160 17ZM3 160C3 73.2913 73.2913 3 160 3C246.709 3 317 73.2913 317 160C317 246.709 246.709 317 160 317C73.2913 317 3 246.709 3 160Z"
    fill="#E2AC28" />
  <path fill-rule="evenodd" clip-rule="evenodd"
    d="M271.688 57.6878L58.6877 270.688L47.374 259.374L260.374 46.374L271.688 57.6878Z"
    fill="#E2AC28" />
  <path fill-rule="evenodd" clip-rule="evenodd"
    d="M228.031 31.0315L28.5315 230.531L17.2178 219.218L216.718 19.7178L228.031 31.0315Z"
    fill="#E2AC28" />
  <path fill-rule="evenodd" clip-rule="evenodd"
    d="M173.313 15.4378L15.8752 172.875L4.56152 161.562L161.999 4.12408L173.313 15.4378Z"
    fill="#E2AC28" />
</svg>
  