<svg width="300" height="300" viewBox="0 0 300 300" fill="none" xmlns="http://www.w3.org/2000/svg">
  <path fill-rule="evenodd" clip-rule="evenodd"
    d="M150 27C82.069 27 27 82.069 27 150C27 217.931 82.069 273 150 273C217.931 273 273 217.931 273 150C273 82.069 217.931 27 150 27ZM17 150C17 76.5461 76.5461 17 150 17C223.454 17 283 76.5461 283 150C283 223.454 223.454 283 150 283C76.5461 283 17 223.454 17 150Z"
    fill="white" />
  <path fill-rule="evenodd" clip-rule="evenodd"
    d="M245 62.9997L64.5003 243.5L56.7222 235.722L237.222 55.2215L245 62.9997Z" fill="white" />
  <path fill-rule="evenodd" clip-rule="evenodd"
    d="M209.25 38.7499L38.2503 209.75L30.4722 201.972L201.472 30.9717L209.25 38.7499Z" fill="white" />
  <path fill-rule="evenodd" clip-rule="evenodd"
    d="M162.5 25.4999L25.9999 162L18.2217 154.222L154.722 17.7217L162.5 25.4999Z" fill="white" />
</svg>