<svg width="16" height="16" viewBox="0 0 16 16" fill="none" xmlns="http://www.w3.org/2000/svg">
  <path fill-rule="evenodd" clip-rule="evenodd"
    d="M7.99958 1.44001C4.3766 1.44001 1.43958 4.37702 1.43958 8.00001C1.43958 11.623 4.3766 14.56 7.99958 14.56C11.6226 14.56 14.5596 11.623 14.5596 8.00001C14.5596 4.37702 11.6226 1.44001 7.99958 1.44001ZM0.90625 8.00001C0.90625 4.08247 4.08204 0.906677 7.99958 0.906677C11.9171 0.906677 15.0929 4.08247 15.0929 8.00001C15.0929 11.9176 11.9171 15.0933 7.99958 15.0933C4.08204 15.0933 0.90625 11.9176 0.90625 8.00001Z"
    fill="black" />
  <path fill-rule="evenodd" clip-rule="evenodd"
    d="M13.0669 3.36L3.44022 12.9867L3.02539 12.5719L12.652 2.94516L13.0669 3.36Z" fill="black" />
  <path fill-rule="evenodd" clip-rule="evenodd"
    d="M11.1598 2.06666L2.03983 11.1867L1.625 10.7718L10.745 1.65182L11.1598 2.06666Z" fill="black" />
  <path fill-rule="evenodd" clip-rule="evenodd"
    d="M8.66652 1.36L1.38652 8.64L0.97168 8.22518L8.2517 0.94516L8.66652 1.36Z" fill="black" />
</svg>